<?xml version="1.0" ?>
<svg height="62.53751250624106mm" version="1.1" viewBox="108.98750000001203 -196.550012506229 62.037512506241086 62.53751250624106" width="62.037512506241086mm" xmlns="http://www.w3.org/2000/svg" xmlns:xlink="http://www.w3.org/1999/xlink">
	<g transform="scale(1,-1)">
		<g>
			<path d="M 109.03109791015389,-133.29391323595144 L 109.0310979100115,-133.293913235482 L 109.00695490365139,-133.1975289512795 L 109.0069549035557,-133.19752895079841 L 108.99237546428044,-133.0992423548266 L 108.99237546423235,-133.09924235433843 L 108.98750000001203,-133.00000000024502 L 108.98750000001203,-132.99999999975498 L 108.99237546423235,-132.90075764566157 L 108.99237546428044,-132.9007576451734 L 109.0069549035557,-132.80247104920159 L 109.00695490365139,-132.8024710487205 L 109.03109791001151,-132.70608676451792 L 109.0310979101538,-132.70608676404885 L 109.06457197324963,-132.61253302496144 L 109.0645719734372,-132.61253302450862 L 109.10705471974237,-132.52271080418552 L 109.10705471997346,-132.52271080375317 L 109.15813701741749,-132.43748513927818 L 109.15813701768991,-132.43748513887047 L 109.21732691582397,-132.35767679998153 L 109.21732691613508,-132.35767679960244 L 109.28405438388386,-132.28405438423042 L 109.2840543842304,-132.28405438388387 L 109.35767679960232,-132.2173269161352 L 109.35767679998155,-132.21732691582395 L 109.43748513887056,-132.15813701768985 L 109.43748513927827,-132.15813701741743 L 109.52271080375306,-132.10705471997355 L 109.52271080418558,-132.10705471974234 L 109.61253302450827,-132.06457197343735 L 109.61253302496173,-132.06457197324954 L 109.70608676404828,-132.031097910154 L 109.70608676451845,-132.03109791001137 L 109.80247104872015,-132.00695490365146 L 109.80247104920166,-132.00695490355568 L 109.90075764517361,-131.9923754642804 L 109.9007576456615,-131.99237546423234 L 109.9999999997547,-131.98750000001206 L 110.0000000002453,-131.98750000001206 L 110.0992423543385,-131.99237546423234 L 110.09924235482639,-131.9923754642804 L 110.19752895079833,-132.00695490355568 L 110.19752895127984,-132.00695490365146 L 110.29391323548155,-132.03109791001137 L 110.29391323595172,-132.031097910154 L 110.38746697503825,-132.06457197324954 L 110.38746697549172,-132.06457197343735 L 110.47728919581442,-132.10705471974234 L 110.47728919624694,-132.10705471997355 L 110.56251486072172,-132.15813701741743 L 110.56251486112943,-132.15813701768985 L 110.64232320001845,-132.21732691582395 L 110.64232320039768,-132.2173269161352 L 110.71594561576958,-132.28405438388387 L 110.71594561611613,-132.28405438423042 L 110.78267308386492,-132.35767679960244 L 110.78267308417603,-132.35767679998153 L 110.84186298231008,-132.43748513887047 L 110.8418629825825,-132.43748513927818 L 110.89294528002652,-132.52271080375314 L 110.89294528025762,-132.5227108041855 L 110.9354280265627,-132.6125330245084 L 110.93542802675039,-132.6125330249615 L 110.96890208984611,-132.70608676404856 L 110.9689020899885,-132.706086764518 L 110.99304509634861,-132.8024710487205 L 110.9930450964443,-132.80247104920159 L 111.00762453571956,-132.9007576451734 L 111.00762453576765,-132.90075764566157 L 111.01249999998797,-132.99999999975498 L 111.01249999998797,-133.00000000024502 L 111.00762453576765,-133.09924235433843 L 111.00762453571956,-133.0992423548266 L 110.9930450964443,-133.19752895079841 L 110.99304509634861,-133.1975289512795 L 110.96890208998849,-133.29391323548208 L 110.9689020898462,-133.29391323595115 L 110.93542802675037,-133.38746697503856 L 110.9354280265628,-133.38746697549138 L 110.89294528025763,-133.47728919581448 L 110.89294528002654,-133.47728919624683 L 110.84186298258251,-133.56251486072182 L 110.84186298231009,-133.56251486112953 L 110.78267308417603,-133.64232320001847 L 110.78267308386492,-133.64232320039756 L 110.71594561611614,-133.71594561576958 L 110.7159456157696,-133.71594561611613 L 110.64232320039768,-133.7826730838648 L 110.64232320001845,-133.78267308417605 L 110.56251486112944,-133.84186298231015 L 110.56251486072173,-133.84186298258257 L 110.47728919624694,-133.89294528002645 L 110.47728919581442,-133.89294528025766 L 110.38746697549173,-133.93542802656265 L 110.38746697503827,-133.93542802675046 L 110.29391323595172,-133.968902089846 L 110.29391323548155,-133.96890208998863 L 110.19752895127985,-133.99304509634854 L 110.19752895079834,-133.99304509644432 L 110.09924235482639,-134.0076245357196 L 110.0992423543385,-134.00762453576766 L 110.0000000002453,-134.01249999998794 L 109.9999999997547,-134.01249999998794 L 109.9007576456615,-134.00762453576766 L 109.90075764517361,-134.0076245357196 L 109.80247104920166,-133.99304509644432 L 109.80247104872015,-133.99304509634854 L 109.70608676451845,-133.96890208998863 L 109.70608676404828,-133.968902089846 L 109.61253302496175,-133.93542802675046 L 109.61253302450828,-133.93542802656265 L 109.52271080418558,-133.89294528025766 L 109.52271080375306,-133.89294528002645 L 109.43748513927828,-133.84186298258257 L 109.43748513887057,-133.84186298231015 L 109.35767679998155,-133.78267308417605 L 109.35767679960232,-133.7826730838648 L 109.2840543842304,-133.71594561611613 L 109.28405438388386,-133.71594561576958 L 109.21732691613508,-133.64232320039756 L 109.21732691582397,-133.64232320001847 L 109.15813701768992,-133.56251486112953 L 109.1581370174175,-133.56251486072182 L 109.10705471997348,-133.47728919624686 L 109.10705471974238,-133.4772891958145 L 109.0645719734373,-133.3874669754916 L 109.06457197324961,-133.3874669750385 L 109.03109791015389,-133.29391323595144 z" fill="#66cc99" fill-rule="evenodd" opacity="0.6" stroke="#555555" stroke-width="0.02"/>
			<path d="M 164.47501762240609,-75.50122730538808 L 164.47501762240609,-75.49877269461192 L 164.4750176224121,-75.49877269436625 L 164.4870558057196,-75.25372984378721 L 164.4870558057376,-75.2537298435432 L 164.48729639966652,-75.2512870523886 L 164.48729639969653,-75.25128705214517 L 164.52329501533302,-75.008604098171 L 164.52329501537494,-75.00860409792938 L 164.52377388618174,-75.0061966518107 L 164.5237738862355,-75.00619665157137 L 164.58338624785316,-74.76821076371454 L 164.58338624791907,-74.76821076347633 L 164.5840987838156,-74.76586184741763 L 164.58409878389315,-74.76586184718279 L 164.66675079186217,-74.53486495963908 L 164.66675079195105,-74.53486495940864 L 164.66769013082774,-74.53259719475287 L 164.6676901309273,-74.53259719452825 L 164.77258580122938,-74.3108139335985 L 164.77258580134034,-74.31081393337807 L 164.77374289684988,-74.30864915993986 L 164.77374289697136,-74.30864915972542 L 164.899872026959,-74.0982154194531 L 164.89987202709116,-74.09821541924438 L 164.90123573577173,-74.09617448497443 L 164.90123573591282,-74.0961744847741 L 165.0473836331168,-73.89911685711023 L 165.04738363326683,-73.89911685691798 L 165.04894082185908,-73.89721941712834 L 165.04894082201943,-73.89721941694243 L 165.2137000022953,-73.71543567456676 L 165.21370000246395,-73.71543567438964 L 165.21543567438934,-73.71370000246426 L 165.21543567456706,-73.71370000229504 L 165.39721941694282,-73.54894082201906 L 165.39721941712804,-73.5489408218593 L 165.39911685691717,-73.5473836332675 L 165.3991168571111,-73.54738363311616 L 165.5961744847739,-73.40123573591296 L 165.59617448497423,-73.40123573577188 L 165.59821541924543,-73.39987202709045 L 165.59821541945198,-73.39987202695967 L 165.80864915972626,-73.27374289697084 L 165.80864915993897,-73.27374289685037 L 165.81081393337917,-73.27258580133976 L 165.81081393359747,-73.27258580122987 L 166.03259719452845,-73.1676901309272 L 166.03259719475275,-73.16769013082778 L 166.03486495940916,-73.16675079195083 L 166.03486495963816,-73.1667507918625 L 166.26586184718363,-73.08409878389287 L 166.26586184741663,-73.08409878381589 L 166.2682107634774,-73.08338624791878 L 166.26821076371345,-73.08338624785345 L 166.5061966515713,-73.02377388623553 L 166.5061966518111,-73.02377388618167 L 166.50860409792915,-73.023295015375 L 166.50860409817147,-73.02329501533295 L 166.75128705214468,-72.9872963996966 L 166.75128705238853,-72.98729639966653 L 166.75372984354286,-72.98705580573763 L 166.75372984378785,-72.98705580571955 L 166.99877269436638,-72.9750176224121 L 166.99877269461203,-72.97501762240607 L 167.00122730538797,-72.97501762240607 L 167.00122730563362,-72.9750176224121 L 167.24627015621215,-72.98705580571955 L 167.24627015645714,-72.98705580573763 L 167.24871294761147,-72.98729639966653 L 167.24871294785532,-72.9872963996966 L 167.49139590182853,-73.02329501533295 L 167.49139590207085,-73.023295015375 L 167.4938033481889,-73.02377388618167 L 167.4938033484287,-73.02377388623553 L 167.73178923628655,-73.08338624785345 L 167.7317892365226,-73.08338624791878 L 167.73413815258345,-73.08409878381592 L 167.73413815281606,-73.08409878389276 L 167.96513504036184,-73.1667507918625 L 167.96513504059084,-73.16675079195083 L 167.96740280524725,-73.16769013082778 L 167.96740280547155,-73.1676901309272 L 168.18918606640253,-73.27258580122987 L 168.18918606662083,-73.27258580133976 L 168.19135084006103,-73.27374289685037 L 168.19135084027374,-73.27374289697084 L 168.40178458054802,-73.39987202695967 L 168.40178458075457,-73.39987202709045 L 168.40382551502577,-73.40123573577188 L 168.4038255152261,-73.40123573591296 L 168.6008831428889,-73.54738363311616 L 168.60088314308283,-73.5473836332675 L 168.60278058287196,-73.54894082185932 L 168.60278058305718,-73.54894082201908 L 168.7845643254329,-73.71370000229506 L 168.78456432561063,-73.71370000246428 L 168.78629999753602,-73.71543567438964 L 168.78629999770467,-73.71543567456676 L 168.95105917798057,-73.89721941694243 L 168.95105917814092,-73.89721941712834 L 168.95261636673317,-73.89911685691798 L 168.9526163668832,-73.89911685711023 L 169.09876426408718,-74.0961744847741 L 169.09876426422827,-74.09617448497443 L 169.10012797290884,-74.09821541924438 L 169.100127973041,-74.0982154194531 L 169.22625710302864,-74.30864915972542 L 169.22625710315012,-74.30864915993986 L 169.22741419865966,-74.31081393337806 L 169.22741419877062,-74.31081393359848 L 169.3323098690727,-74.53259719452822 L 169.33230986917226,-74.53259719475284 L 169.33324920804895,-74.53486495940862 L 169.33324920813783,-74.53486495963907 L 169.41590121610685,-74.76586184718279 L 169.4159012161844,-74.76586184741763 L 169.41661375208093,-74.76821076347633 L 169.41661375214684,-74.76821076371454 L 169.4762261137645,-75.00619665157137 L 169.47622611381826,-75.0061966518107 L 169.47670498462506,-75.00860409792938 L 169.47670498466698,-75.008604098171 L 169.51270360030347,-75.25128705214517 L 169.51270360033348,-75.2512870523886 L 169.5129441942624,-75.2537298435432 L 169.5129441942804,-75.25372984378721 L 169.5249823775879,-75.49877269436625 L 169.52498237759391,-75.49877269461192 L 169.52498237759391,-75.50122730538808 L 169.5249823775879,-75.50122730563375 L 169.5129441942804,-75.74627015621279 L 169.5129441942624,-75.7462701564568 L 169.51270360033348,-75.7487129476114 L 169.51270360030347,-75.74871294785483 L 169.47670498466698,-75.991395901829 L 169.47670498462506,-75.99139590207062 L 169.47622611381826,-75.9938033481893 L 169.4762261137645,-75.99380334842863 L 169.41661375214684,-76.23178923628546 L 169.41661375208093,-76.23178923652367 L 169.4159012161844,-76.23413815258237 L 169.41590121610685,-76.23413815281721 L 169.33324920813783,-76.46513504036092 L 169.33324920804895,-76.46513504059136 L 169.33230986917226,-76.46740280524713 L 169.3323098690727,-76.46740280547175 L 169.22741419877062,-76.6891860664015 L 169.22741419865966,-76.68918606662193 L 169.22625710315012,-76.69135084006014 L 169.22625710302864,-76.69135084027458 L 169.100127973041,-76.9017845805469 L 169.10012797290884,-76.90178458075562 L 169.09876426422827,-76.90382551502557 L 169.09876426408718,-76.9038255152259 L 168.9526163668832,-77.10088314288977 L 168.95261636673317,-77.10088314308202 L 168.95105917814092,-77.10278058287166 L 168.95105917798057,-77.10278058305757 L 168.7862999977047,-77.28456432543324 L 168.78629999753605,-77.28456432561036 L 168.78456432561066,-77.28629999753574 L 168.78456432543294,-77.28629999770496 L 168.60278058305718,-77.45105917798094 L 168.60278058287196,-77.4510591781407 L 168.60088314308283,-77.4526163667325 L 168.6008831428889,-77.45261636688384 L 168.4038255152261,-77.59876426408704 L 168.40382551502577,-77.59876426422812 L 168.40178458075457,-77.60012797290955 L 168.40178458054802,-77.60012797304033 L 168.19135084027374,-77.72625710302916 L 168.19135084006103,-77.72625710314963 L 168.18918606662083,-77.72741419866024 L 168.18918606640253,-77.72741419877013 L 167.96740280547155,-77.8323098690728 L 167.96740280524725,-77.83230986917222 L 167.96513504059084,-77.83324920804917 L 167.96513504036184,-77.8332492081375 L 167.73413815281637,-77.91590121610713 L 167.73413815258337,-77.91590121618411 L 167.7317892365226,-77.91661375208122 L 167.73178923628655,-77.91661375214655 L 167.4938033484287,-77.97622611376447 L 167.4938033481889,-77.97622611381833 L 167.49139590207085,-77.976704984625 L 167.49139590182853,-77.97670498466705 L 167.24871294785532,-78.0127036003034 L 167.24871294761147,-78.01270360033347 L 167.24627015645714,-78.01294419426237 L 167.24627015621215,-78.01294419428045 L 167.00122730563362,-78.0249823775879 L 167.00122730538797,-78.02498237759393 L 166.99877269461203,-78.02498237759393 L 166.99877269436638,-78.0249823775879 L 166.75372984378785,-78.01294419428045 L 166.75372984354286,-78.01294419426237 L 166.75128705238853,-78.01270360033347 L 166.75128705214468,-78.0127036003034 L 166.50860409817147,-77.97670498466705 L 166.50860409792915,-77.976704984625 L 166.5061966518111,-77.97622611381833 L 166.5061966515713,-77.97622611376447 L 166.26821076371345,-77.91661375214655 L 166.2682107634774,-77.91661375208122 L 166.26586184741655,-77.91590121618408 L 166.26586184718394,-77.91590121610724 L 166.03486495963816,-77.8332492081375 L 166.03486495940916,-77.83324920804917 L 166.03259719475275,-77.83230986917222 L 166.03259719452845,-77.8323098690728 L 165.81081393359747,-77.72741419877013 L 165.81081393337917,-77.72741419866024 L 165.80864915993897,-77.72625710314963 L 165.80864915972626,-77.72625710302916 L 165.59821541945198,-77.60012797304033 L 165.59821541924543,-77.60012797290955 L 165.59617448497423,-77.59876426422812 L 165.5961744847739,-77.59876426408704 L 165.3991168571111,-77.45261636688384 L 165.39911685691717,-77.4526163667325 L 165.39721941712804,-77.45105917814068 L 165.39721941694282,-77.45105917798092 L 165.2154356745671,-77.28629999770494 L 165.21543567438937,-77.28629999753572 L 165.21370000246398,-77.28456432561036 L 165.21370000229533,-77.28456432543324 L 165.04894082201943,-77.10278058305757 L 165.04894082185908,-77.10278058287166 L 165.04738363326683,-77.10088314308202 L 165.0473836331168,-77.10088314288977 L 164.90123573591282,-76.9038255152259 L 164.90123573577173,-76.90382551502557 L 164.89987202709116,-76.90178458075562 L 164.899872026959,-76.9017845805469 L 164.77374289697136,-76.69135084027458 L 164.77374289684988,-76.69135084006014 L 164.77258580134034,-76.68918606662193 L 164.77258580122938,-76.6891860664015 L 164.6676901309273,-76.46740280547175 L 164.66769013082774,-76.46740280524713 L 164.66675079195105,-76.46513504059136 L 164.66675079186217,-76.46513504036092 L 164.58409878389315,-76.23413815281721 L 164.5840987838156,-76.23413815258237 L 164.58338624791907,-76.23178923652367 L 164.58338624785316,-76.23178923628546 L 164.5237738862355,-75.99380334842863 L 164.52377388618174,-75.9938033481893 L 164.52329501537494,-75.99139590207062 L 164.52329501533302,-75.991395901829 L 164.48729639969653,-75.74871294785483 L 164.48729639966652,-75.7487129476114 L 164.4870558057376,-75.7462701564568 L 164.4870558057196,-75.74627015621279 L 164.4750176224121,-75.50122730563375 L 164.47501762240609,-75.50122730538808 z M 164.52504267127148,-75.49999999950933 L 164.52504267127148,-75.50000000049067 L 164.53696026723586,-75.74258823931117 L 164.53696026733203,-75.7425882402878 L 164.57259828226125,-75.98284022175663 L 164.57259828245273,-75.98284022271913 L 164.63161350278125,-76.21844218891914 L 164.63161350306612,-76.21844218985824 L 164.7134375799611,-76.44712516506148 L 164.71343758033663,-76.44712516596813 L 164.81728250320828,-76.66668680811358 L 164.8172825036709,-76.66668680897907 L 164.94214818914404,-76.87501261942708 L 164.94214818968922,-76.87501262024304 L 165.0868321129549,-77.07009630755772 L 165.0868321135775,-77.07009630831632 L 165.24994088936185,-77.2500591099444 L 165.24994089005577,-77.25005911063832 L 165.42990369168368,-77.41316788642253 L 165.42990369244228,-77.41316788704509 L 165.6249873797567,-77.55785181031058 L 165.62498738057266,-77.5578518108558 L 165.83331319102106,-77.68271749632918 L 165.83331319188653,-77.68271749679178 L 166.05287483403174,-77.78656241966331 L 166.0528748349384,-77.78656242003886 L 166.28155781014195,-77.86838649693392 L 166.28155781014195,-77.86838649693391 L 166.28155781108106,-77.8683864972188 L 166.51715977728102,-77.92740171754731 L 166.51715977824352,-77.92740171773876 L 166.7574117597119,-77.96303973266792 L 166.75741176068854,-77.96303973276412 L 166.99999999950933,-77.97495732872851 L 167.00000000049067,-77.97495732872851 L 167.24258823931146,-77.96303973276412 L 167.2425882402881,-77.96303973266792 L 167.48284022175648,-77.92740171773876 L 167.48284022271898,-77.92740171754731 L 167.71844218891894,-77.8683864972188 L 167.71844218985805,-77.86838649693392 L 167.9471251650616,-77.78656242003886 L 167.9471251650616,-77.78656242003885 L 167.94712516596826,-77.78656241966331 L 168.16668680811347,-77.68271749679178 L 168.16668680897894,-77.68271749632918 L 168.37501261942734,-77.5578518108558 L 168.3750126202433,-77.55785181031058 L 168.57009630755763,-77.41316788704516 L 168.57009630831624,-77.4131678864226 L 168.75005910994435,-77.25005911063823 L 168.75005911063826,-77.25005910994432 L 168.9131678864225,-77.07009630831632 L 168.9131678870451,-77.07009630755772 L 169.05785181031078,-76.87501262024304 L 169.05785181085596,-76.87501261942708 L 169.1827174963291,-76.66668680897907 L 169.18271749679172,-76.66668680811358 L 169.28656241966337,-76.44712516596813 L 169.2865624200389,-76.44712516506148 L 169.36838649693388,-76.21844218985824 L 169.36838649721875,-76.21844218891914 L 169.42740171754727,-75.98284022271913 L 169.42740171773875,-75.98284022175663 L 169.46303973266797,-75.7425882402878 L 169.46303973276414,-75.74258823931117 L 169.47495732872852,-75.50000000049067 L 169.47495732872852,-75.49999999950933 L 169.46303973276414,-75.25741176068883 L 169.46303973266797,-75.2574117597122 L 169.42740171773875,-75.01715977824337 L 169.42740171754727,-75.01715977728087 L 169.36838649721875,-74.78155781108086 L 169.36838649693388,-74.78155781014176 L 169.2865624200389,-74.55287483493856 L 169.28656241966337,-74.55287483403191 L 169.1827174967917,-74.33331319188636 L 169.18271749632908,-74.33331319102088 L 169.05785181085596,-74.12498738057292 L 169.05785181031078,-74.12498737975696 L 168.9131678870451,-73.92990369244228 L 168.9131678864225,-73.92990369168368 L 168.75005911063815,-73.7499408900556 L 168.75005910994423,-73.74994088936168 L 168.57009630831632,-73.58683211357747 L 168.57009630755772,-73.58683211295491 L 168.3750126202433,-73.44214818968942 L 168.37501261942734,-73.4421481891442 L 168.16668680897894,-73.31728250367082 L 168.16668680811347,-73.31728250320822 L 167.94712516596826,-73.21343758033669 L 167.9471251650616,-73.21343757996114 L 167.71844218985805,-73.13161350306608 L 167.71844218985805,-73.13161350306609 L 167.71844218891894,-73.1316135027812 L 167.48284022271898,-73.07259828245269 L 167.48284022175648,-73.07259828226124 L 167.2425882402881,-73.03696026733208 L 167.24258823931146,-73.03696026723588 L 167.00000000049067,-73.02504267127149 L 166.99999999950933,-73.02504267127149 L 166.75741176068854,-73.03696026723588 L 166.7574117597119,-73.03696026733208 L 166.51715977824352,-73.07259828226124 L 166.51715977728102,-73.07259828245269 L 166.28155781108106,-73.1316135027812 L 166.28155781014195,-73.13161350306608 L 166.0528748349384,-73.21343757996114 L 166.0528748349384,-73.21343757996115 L 166.05287483403174,-73.21343758033669 L 165.83331319188653,-73.31728250320822 L 165.83331319102106,-73.31728250367082 L 165.62498738057266,-73.4421481891442 L 165.6249873797567,-73.44214818968942 L 165.42990369244237,-73.58683211295484 L 165.42990369168376,-73.5868321135774 L 165.24994089005565,-73.74994088936177 L 165.24994088936174,-73.74994089005568 L 165.0868321135775,-73.92990369168368 L 165.0868321129549,-73.92990369244228 L 164.94214818968922,-74.12498737975696 L 164.94214818914404,-74.12498738057292 L 164.8172825036709,-74.33331319102093 L 164.81728250320828,-74.33331319188642 L 164.71343758033663,-74.55287483403187 L 164.7134375799611,-74.55287483493852 L 164.63161350306612,-74.78155781014176 L 164.63161350278125,-74.78155781108086 L 164.57259828245273,-75.01715977728087 L 164.57259828226125,-75.01715977824337 L 164.53696026733203,-75.2574117597122 L 164.53696026723586,-75.25741176068883 L 164.52504267127148,-75.49999999950933 z" fill="#66cc99" fill-rule="evenodd" opacity="0.6" stroke="#555555" stroke-width="0.02"/>
			<path d="M 112.47501762240607,-75.50122730538793 L 112.47501762240607,-75.49877269461207 L 112.4750176224121,-75.49877269436638 L 112.48705580571956,-75.25372984378737 L 112.48705580573757,-75.25372984354333 L 112.48729639966655,-75.25128705238835 L 112.48729639969658,-75.25128705214486 L 112.523295015333,-75.00860409817116 L 112.52329501537493,-75.0086040979295 L 112.5237738861817,-75.00619665181097 L 112.5237738862355,-75.00619665157137 L 112.58338624785345,-74.76821076371345 L 112.58338624791878,-74.7682107634774 L 112.58409878381592,-74.76586184741656 L 112.5840987838928,-74.76586184718381 L 112.6667507918625,-74.53486495963816 L 112.66675079195079,-74.53486495940929 L 112.66769013082774,-74.53259719475287 L 112.6676901309273,-74.53259719452825 L 112.77258580122978,-74.31081393359764 L 112.77258580133977,-74.31081393337912 L 112.77374289685037,-74.30864915993897 L 112.77374289697084,-74.30864915972629 L 112.8998720269595,-74.09821541945226 L 112.89987202709062,-74.0982154192452 L 112.90123573577169,-74.09617448497451 L 112.90123573591316,-74.09617448477364 L 113.04738363311616,-73.89911685711111 L 113.04738363326739,-73.89911685691732 L 113.04894082185906,-73.89721941712834 L 113.04894082201943,-73.89721941694243 L 113.21370000229504,-73.71543567456708 L 113.21370000246426,-73.71543567438934 L 113.21543567438934,-73.71370000246426 L 113.21543567456708,-73.71370000229504 L 113.39721941694243,-73.54894082201943 L 113.39721941712834,-73.54894082185906 L 113.39911685691732,-73.54738363326739 L 113.39911685711111,-73.54738363311616 L 113.59617448477364,-73.40123573591316 L 113.59617448497451,-73.40123573577169 L 113.5982154192452,-73.39987202709062 L 113.59821541945226,-73.3998720269595 L 113.80864915972629,-73.27374289697084 L 113.80864915993897,-73.27374289685037 L 113.81081393337911,-73.27258580133977 L 113.81081393359763,-73.27258580122978 L 114.03259719452822,-73.1676901309273 L 114.03259719475284,-73.16769013082774 L 114.03486495940928,-73.16675079195079 L 114.03486495963814,-73.1667507918625 L 114.26586184718381,-73.0840987838928 L 114.26586184741656,-73.08409878381592 L 114.2682107634774,-73.08338624791878 L 114.26821076371345,-73.08338624785345 L 114.50619665157137,-73.0237738862355 L 114.50619665181097,-73.0237738861817 L 114.5086040979295,-73.02329501537493 L 114.50860409817116,-73.023295015333 L 114.75128705214486,-72.98729639969658 L 114.75128705238835,-72.98729639966655 L 114.75372984354333,-72.98705580573757 L 114.75372984378737,-72.98705580571956 L 114.99877269436638,-72.9750176224121 L 114.99877269461207,-72.97501762240607 L 115.00122730538793,-72.97501762240607 L 115.00122730563362,-72.9750176224121 L 115.24627015621263,-72.98705580571956 L 115.24627015645667,-72.98705580573757 L 115.24871294761165,-72.98729639966655 L 115.24871294785514,-72.98729639969658 L 115.49139590182884,-73.023295015333 L 115.4913959020705,-73.02329501537493 L 115.49380334818903,-73.0237738861817 L 115.49380334842863,-73.0237738862355 L 115.73178923628655,-73.08338624785345 L 115.7317892365226,-73.08338624791878 L 115.73413815258344,-73.08409878381592 L 115.73413815281619,-73.0840987838928 L 115.96513504036186,-73.1667507918625 L 115.96513504059072,-73.16675079195079 L 115.96740280524716,-73.16769013082774 L 115.96740280547178,-73.1676901309273 L 116.18918606640237,-73.27258580122978 L 116.18918606662089,-73.27258580133977 L 116.19135084006103,-73.27374289685037 L 116.19135084027371,-73.27374289697084 L 116.40178458054774,-73.3998720269595 L 116.4017845807548,-73.39987202709062 L 116.40382551502549,-73.40123573577169 L 116.40382551522636,-73.40123573591316 L 116.60088314288889,-73.54738363311616 L 116.60088314308268,-73.54738363326739 L 116.60278058287166,-73.54894082185906 L 116.60278058305757,-73.54894082201943 L 116.78456432543292,-73.71370000229504 L 116.78456432561066,-73.71370000246426 L 116.78629999753574,-73.71543567438934 L 116.78629999770496,-73.71543567456708 L 116.95105917798057,-73.89721941694243 L 116.95105917814094,-73.89721941712834 L 116.95261636673261,-73.89911685691732 L 116.95261636688384,-73.89911685711111 L 117.09876426408684,-74.09617448477364 L 117.09876426422831,-74.09617448497451 L 117.10012797290938,-74.0982154192452 L 117.1001279730405,-74.09821541945226 L 117.22625710302916,-74.30864915972629 L 117.22625710314963,-74.30864915993897 L 117.22741419866023,-74.31081393337911 L 117.22741419877022,-74.31081393359763 L 117.3323098690727,-74.53259719452822 L 117.33230986917226,-74.53259719475284 L 117.33324920804921,-74.53486495940928 L 117.3332492081375,-74.53486495963814 L 117.4159012161072,-74.76586184718381 L 117.41590121618408,-74.76586184741656 L 117.41661375208122,-74.7682107634774 L 117.41661375214655,-74.76821076371345 L 117.4762261137645,-75.00619665157137 L 117.4762261138183,-75.00619665181097 L 117.47670498462507,-75.0086040979295 L 117.476704984667,-75.00860409817116 L 117.51270360030342,-75.25128705214486 L 117.51270360033345,-75.25128705238835 L 117.51294419426243,-75.25372984354333 L 117.51294419428044,-75.25372984378737 L 117.5249823775879,-75.49877269436638 L 117.52498237759393,-75.49877269461207 L 117.52498237759393,-75.50122730538793 L 117.5249823775879,-75.50122730563362 L 117.51294419428044,-75.74627015621263 L 117.51294419426243,-75.74627015645667 L 117.51270360033345,-75.74871294761165 L 117.51270360030342,-75.74871294785514 L 117.476704984667,-75.99139590182884 L 117.47670498462507,-75.9913959020705 L 117.4762261138183,-75.99380334818903 L 117.4762261137645,-75.99380334842863 L 117.41661375214655,-76.23178923628655 L 117.41661375208122,-76.2317892365226 L 117.41590121618408,-76.23413815258344 L 117.4159012161072,-76.23413815281619 L 117.3332492081375,-76.46513504036184 L 117.33324920804921,-76.46513504059071 L 117.33230986917226,-76.46740280524713 L 117.3323098690727,-76.46740280547175 L 117.22741419877022,-76.68918606640236 L 117.22741419866023,-76.68918606662088 L 117.22625710314963,-76.69135084006103 L 117.22625710302916,-76.69135084027371 L 117.1001279730405,-76.90178458054774 L 117.10012797290938,-76.9017845807548 L 117.09876426422831,-76.90382551502549 L 117.09876426408684,-76.90382551522636 L 116.95261636688384,-77.10088314288889 L 116.95261636673261,-77.10088314308268 L 116.95105917814094,-77.10278058287166 L 116.95105917798057,-77.10278058305757 L 116.78629999770496,-77.28456432543292 L 116.78629999753574,-77.28456432561066 L 116.78456432561066,-77.28629999753574 L 116.78456432543292,-77.28629999770496 L 116.60278058305757,-77.45105917798057 L 116.60278058287166,-77.45105917814094 L 116.60088314308268,-77.45261636673261 L 116.60088314288889,-77.45261636688384 L 116.40382551522636,-77.59876426408684 L 116.40382551502549,-77.59876426422831 L 116.4017845807548,-77.60012797290938 L 116.40178458054774,-77.6001279730405 L 116.19135084027371,-77.72625710302916 L 116.19135084006103,-77.72625710314963 L 116.18918606662088,-77.72741419866023 L 116.18918606640236,-77.72741419877022 L 115.96740280547175,-77.8323098690727 L 115.96740280524713,-77.83230986917226 L 115.96513504059071,-77.83324920804921 L 115.96513504036184,-77.8332492081375 L 115.73413815281619,-77.9159012161072 L 115.73413815258344,-77.91590121618408 L 115.7317892365226,-77.91661375208122 L 115.73178923628655,-77.91661375214655 L 115.49380334842863,-77.9762261137645 L 115.49380334818903,-77.9762261138183 L 115.4913959020705,-77.97670498462507 L 115.49139590182884,-77.976704984667 L 115.24871294785514,-78.01270360030342 L 115.24871294761165,-78.01270360033345 L 115.24627015645667,-78.01294419426243 L 115.24627015621263,-78.01294419428044 L 115.00122730563362,-78.0249823775879 L 115.00122730538793,-78.02498237759393 L 114.99877269461207,-78.02498237759393 L 114.99877269436638,-78.0249823775879 L 114.75372984378737,-78.01294419428044 L 114.75372984354333,-78.01294419426243 L 114.75128705238835,-78.01270360033345 L 114.75128705214486,-78.01270360030342 L 114.50860409817116,-77.976704984667 L 114.5086040979295,-77.97670498462507 L 114.50619665181097,-77.9762261138183 L 114.50619665157137,-77.9762261137645 L 114.26821076371345,-77.91661375214655 L 114.2682107634774,-77.91661375208122 L 114.26586184741656,-77.91590121618408 L 114.26586184718381,-77.9159012161072 L 114.03486495963816,-77.8332492081375 L 114.03486495940929,-77.83324920804921 L 114.03259719475287,-77.83230986917226 L 114.03259719452825,-77.8323098690727 L 113.81081393359764,-77.72741419877022 L 113.81081393337912,-77.72741419866023 L 113.80864915993897,-77.72625710314963 L 113.80864915972629,-77.72625710302916 L 113.59821541945226,-77.6001279730405 L 113.5982154192452,-77.60012797290938 L 113.59617448497451,-77.59876426422831 L 113.59617448477364,-77.59876426408684 L 113.39911685711111,-77.45261636688384 L 113.39911685691732,-77.45261636673261 L 113.39721941712834,-77.45105917814094 L 113.39721941694243,-77.45105917798057 L 113.21543567456708,-77.28629999770496 L 113.21543567438934,-77.28629999753574 L 113.21370000246426,-77.28456432561066 L 113.21370000229504,-77.28456432543292 L 113.04894082201943,-77.10278058305757 L 113.04894082185906,-77.10278058287166 L 113.04738363326739,-77.10088314308268 L 113.04738363311616,-77.10088314288889 L 112.90123573591316,-76.90382551522636 L 112.90123573577169,-76.90382551502549 L 112.89987202709062,-76.9017845807548 L 112.8998720269595,-76.90178458054774 L 112.77374289697084,-76.69135084027371 L 112.77374289685037,-76.69135084006103 L 112.77258580133977,-76.68918606662088 L 112.77258580122978,-76.68918606640236 L 112.6676901309273,-76.46740280547175 L 112.66769013082774,-76.46740280524713 L 112.66675079195079,-76.46513504059071 L 112.6667507918625,-76.46513504036184 L 112.5840987838928,-76.23413815281619 L 112.58409878381592,-76.23413815258344 L 112.58338624791878,-76.2317892365226 L 112.58338624785345,-76.23178923628655 L 112.5237738862355,-75.99380334842863 L 112.5237738861817,-75.99380334818903 L 112.52329501537493,-75.9913959020705 L 112.523295015333,-75.99139590182884 L 112.48729639969658,-75.74871294785514 L 112.48729639966655,-75.74871294761165 L 112.48705580573757,-75.74627015645667 L 112.48705580571956,-75.74627015621263 L 112.4750176224121,-75.50122730563362 L 112.47501762240607,-75.50122730538793 z M 112.52504267127149,-75.49999999950933 L 112.52504267127149,-75.50000000049067 L 112.53696026723588,-75.74258823931147 L 112.53696026733208,-75.7425882402881 L 112.57259828226124,-75.9828402217565 L 112.57259828245269,-75.982840222719 L 112.63161350278122,-76.218442188919 L 112.63161350306609,-76.2184421898581 L 112.71343757996114,-76.44712516506159 L 112.71343758033669,-76.44712516596825 L 112.81728250320823,-76.66668680811347 L 112.81728250367084,-76.66668680897895 L 112.94214818914416,-76.87501261942728 L 112.94214818968938,-76.87501262024324 L 113.08683211295484,-77.07009630755763 L 113.0868321135774,-77.07009630831624 L 113.24994088936177,-77.25005910994432 L 113.24994089005568,-77.25005911063823 L 113.42990369168376,-77.4131678864226 L 113.42990369244237,-77.41316788704516 L 113.62498737975676,-77.55785181031062 L 113.62498738057272,-77.55785181085584 L 113.83331319102105,-77.68271749632916 L 113.83331319188653,-77.68271749679177 L 114.05287483403175,-77.78656241966331 L 114.05287483493841,-77.78656242003886 L 114.2815578101419,-77.86838649693391 L 114.281557811081,-77.86838649721878 L 114.517159777281,-77.92740171754731 L 114.5171597782435,-77.92740171773876 L 114.7574117597119,-77.96303973266792 L 114.75741176068853,-77.96303973276412 L 114.99999999950933,-77.97495732872851 L 115.00000000049067,-77.97495732872851 L 115.24258823931147,-77.96303973276412 L 115.2425882402881,-77.96303973266792 L 115.4828402217565,-77.92740171773876 L 115.482840222719,-77.92740171754731 L 115.718442188919,-77.86838649721878 L 115.7184421898581,-77.86838649693391 L 115.94712516506159,-77.78656242003886 L 115.94712516596825,-77.78656241966331 L 116.16668680811347,-77.68271749679177 L 116.16668680897895,-77.68271749632916 L 116.37501261942728,-77.55785181085584 L 116.37501262024324,-77.55785181031062 L 116.57009630755763,-77.41316788704516 L 116.57009630831624,-77.4131678864226 L 116.75005910994432,-77.25005911063823 L 116.75005911063823,-77.25005910994432 L 116.9131678864226,-77.07009630831624 L 116.91316788704516,-77.07009630755763 L 117.05785181031062,-76.87501262024324 L 117.05785181085584,-76.87501261942728 L 117.18271749632916,-76.66668680897895 L 117.18271749679177,-76.66668680811347 L 117.28656241966331,-76.44712516596825 L 117.28656242003886,-76.44712516506159 L 117.36838649693391,-76.2184421898581 L 117.36838649721878,-76.218442188919 L 117.42740171754731,-75.982840222719 L 117.42740171773876,-75.9828402217565 L 117.46303973266792,-75.7425882402881 L 117.46303973276412,-75.74258823931147 L 117.47495732872851,-75.50000000049067 L 117.47495732872851,-75.49999999950933 L 117.46303973276412,-75.25741176068853 L 117.46303973266792,-75.2574117597119 L 117.42740171773876,-75.0171597782435 L 117.42740171754731,-75.017159777281 L 117.36838649721878,-74.781557811081 L 117.36838649693391,-74.7815578101419 L 117.28656242003889,-74.55287483493845 L 117.28656241966334,-74.5528748340318 L 117.18271749679174,-74.33331319188648 L 117.18271749632913,-74.33331319102099 L 117.05785181085584,-74.12498738057272 L 117.05785181031062,-74.12498737975676 L 116.91316788704516,-73.92990369244237 L 116.9131678864226,-73.92990369168376 L 116.75005911063823,-73.74994089005568 L 116.75005910994432,-73.74994088936177 L 116.57009630831624,-73.5868321135774 L 116.57009630755763,-73.58683211295484 L 116.37501262024324,-73.44214818968938 L 116.37501261942728,-73.44214818914416 L 116.16668680897901,-73.31728250367087 L 116.16668680811352,-73.31728250320826 L 115.9471251659682,-73.21343758033666 L 115.94712516506155,-73.21343757996111 L 115.7184421898581,-73.13161350306609 L 115.718442188919,-73.13161350278122 L 115.482840222719,-73.07259828245269 L 115.4828402217565,-73.07259828226124 L 115.2425882402881,-73.03696026733208 L 115.24258823931147,-73.03696026723588 L 115.00000000049067,-73.02504267127149 L 114.99999999950933,-73.02504267127149 L 114.75741176068853,-73.03696026723588 L 114.7574117597119,-73.03696026733208 L 114.5171597782435,-73.07259828226124 L 114.517159777281,-73.07259828245269 L 114.281557811081,-73.13161350278122 L 114.2815578101419,-73.13161350306609 L 114.05287483493845,-73.21343757996111 L 114.0528748340318,-73.21343758033666 L 113.83331319188648,-73.31728250320826 L 113.83331319102099,-73.31728250367087 L 113.62498738057272,-73.44214818914416 L 113.62498737975676,-73.44214818968938 L 113.42990369244237,-73.58683211295484 L 113.42990369168376,-73.5868321135774 L 113.24994089005568,-73.74994088936177 L 113.24994088936177,-73.74994089005568 L 113.0868321135774,-73.92990369168376 L 113.08683211295484,-73.92990369244237 L 112.94214818968938,-74.12498737975676 L 112.94214818914416,-74.12498738057272 L 112.81728250367084,-74.33331319102105 L 112.81728250320823,-74.33331319188653 L 112.71343758033669,-74.55287483403175 L 112.71343757996114,-74.55287483493841 L 112.63161350306609,-74.7815578101419 L 112.63161350278122,-74.781557811081 L 112.57259828245269,-75.017159777281 L 112.57259828226124,-75.0171597782435 L 112.53696026733208,-75.2574117597119 L 112.53696026723588,-75.25741176068853 L 112.52504267127149,-75.49999999950933 z" fill="#66cc99" fill-rule="evenodd" opacity="0.6" stroke="#555555" stroke-width="0.02"/>
			<path d="M 164.47501762240609,-127.50122730538808 L 164.47501762240609,-127.49877269461192 L 164.4750176224121,-127.49877269436625 L 164.4870558057196,-127.25372984378721 L 164.4870558057376,-127.2537298435432 L 164.48729639966652,-127.2512870523886 L 164.48729639969653,-127.25128705214517 L 164.52329501533302,-127.008604098171 L 164.52329501537494,-127.00860409792938 L 164.52377388618174,-127.0061966518107 L 164.5237738862355,-127.00619665157137 L 164.58338624785316,-126.76821076371454 L 164.58338624791907,-126.76821076347633 L 164.5840987838156,-126.76586184741763 L 164.58409878389315,-126.76586184718279 L 164.66675079186217,-126.53486495963908 L 164.66675079195105,-126.53486495940864 L 164.66769013082774,-126.53259719475287 L 164.6676901309273,-126.53259719452825 L 164.77258580122938,-126.3108139335985 L 164.77258580134034,-126.31081393337807 L 164.77374289684988,-126.30864915993986 L 164.77374289697136,-126.30864915972542 L 164.899872026959,-126.0982154194531 L 164.89987202709116,-126.09821541924438 L 164.90123573577173,-126.09617448497443 L 164.90123573591282,-126.0961744847741 L 165.0473836331168,-125.89911685711023 L 165.04738363326683,-125.89911685691798 L 165.04894082185908,-125.89721941712834 L 165.04894082201943,-125.89721941694243 L 165.2137000022953,-125.71543567456676 L 165.21370000246395,-125.71543567438964 L 165.21543567438934,-125.71370000246426 L 165.21543567456706,-125.71370000229504 L 165.39721941694282,-125.54894082201906 L 165.39721941712804,-125.5489408218593 L 165.39911685691717,-125.5473836332675 L 165.3991168571111,-125.54738363311616 L 165.5961744847739,-125.40123573591296 L 165.59617448497423,-125.40123573577188 L 165.59821541924543,-125.39987202709045 L 165.59821541945198,-125.39987202695967 L 165.80864915972626,-125.27374289697084 L 165.80864915993897,-125.27374289685037 L 165.81081393337917,-125.27258580133976 L 165.81081393359747,-125.27258580122987 L 166.03259719452845,-125.1676901309272 L 166.03259719475275,-125.16769013082778 L 166.03486495940916,-125.16675079195083 L 166.03486495963816,-125.1667507918625 L 166.26586184718363,-125.08409878389287 L 166.26586184741663,-125.08409878381589 L 166.2682107634774,-125.08338624791878 L 166.26821076371345,-125.08338624785345 L 166.5061966515713,-125.02377388623553 L 166.5061966518111,-125.02377388618167 L 166.50860409792915,-125.023295015375 L 166.50860409817147,-125.02329501533295 L 166.75128705214468,-124.9872963996966 L 166.75128705238853,-124.98729639966653 L 166.75372984354286,-124.98705580573763 L 166.75372984378785,-124.98705580571955 L 166.99877269436638,-124.9750176224121 L 166.99877269461203,-124.97501762240607 L 167.00122730538797,-124.97501762240607 L 167.00122730563362,-124.9750176224121 L 167.24627015621215,-124.98705580571955 L 167.24627015645714,-124.98705580573763 L 167.24871294761147,-124.98729639966653 L 167.24871294785532,-124.9872963996966 L 167.49139590182853,-125.02329501533295 L 167.49139590207085,-125.023295015375 L 167.4938033481889,-125.02377388618167 L 167.4938033484287,-125.02377388623553 L 167.73178923628655,-125.08338624785345 L 167.7317892365226,-125.08338624791878 L 167.73413815258345,-125.08409878381592 L 167.73413815281606,-125.08409878389276 L 167.96513504036184,-125.1667507918625 L 167.96513504059084,-125.16675079195083 L 167.96740280524725,-125.16769013082778 L 167.96740280547155,-125.1676901309272 L 168.18918606640253,-125.27258580122987 L 168.18918606662083,-125.27258580133976 L 168.19135084006103,-125.27374289685037 L 168.19135084027374,-125.27374289697084 L 168.40178458054802,-125.39987202695967 L 168.40178458075457,-125.39987202709045 L 168.40382551502577,-125.40123573577188 L 168.4038255152261,-125.40123573591296 L 168.6008831428889,-125.54738363311616 L 168.60088314308283,-125.5473836332675 L 168.60278058287196,-125.54894082185932 L 168.60278058305718,-125.54894082201908 L 168.7845643254329,-125.71370000229506 L 168.78456432561063,-125.71370000246428 L 168.78629999753602,-125.71543567438964 L 168.78629999770467,-125.71543567456676 L 168.95105917798057,-125.89721941694243 L 168.95105917814092,-125.89721941712834 L 168.95261636673317,-125.89911685691798 L 168.9526163668832,-125.89911685711023 L 169.09876426408718,-126.0961744847741 L 169.09876426422827,-126.09617448497443 L 169.10012797290884,-126.09821541924438 L 169.100127973041,-126.0982154194531 L 169.22625710302864,-126.30864915972542 L 169.22625710315012,-126.30864915993986 L 169.22741419865966,-126.31081393337806 L 169.22741419877062,-126.31081393359848 L 169.3323098690727,-126.53259719452822 L 169.33230986917226,-126.53259719475284 L 169.33324920804895,-126.53486495940862 L 169.33324920813783,-126.53486495963907 L 169.41590121610685,-126.76586184718279 L 169.4159012161844,-126.76586184741763 L 169.41661375208093,-126.76821076347633 L 169.41661375214684,-126.76821076371454 L 169.4762261137645,-127.00619665157137 L 169.47622611381826,-127.0061966518107 L 169.47670498462506,-127.00860409792938 L 169.47670498466698,-127.008604098171 L 169.51270360030347,-127.25128705214517 L 169.51270360033348,-127.2512870523886 L 169.5129441942624,-127.2537298435432 L 169.5129441942804,-127.25372984378721 L 169.5249823775879,-127.49877269436625 L 169.52498237759391,-127.49877269461192 L 169.52498237759391,-127.50122730538808 L 169.5249823775879,-127.50122730563375 L 169.5129441942804,-127.74627015621279 L 169.5129441942624,-127.7462701564568 L 169.51270360033348,-127.7487129476114 L 169.51270360030347,-127.74871294785483 L 169.47670498466698,-127.991395901829 L 169.47670498462506,-127.99139590207062 L 169.47622611381826,-127.9938033481893 L 169.4762261137645,-127.99380334842863 L 169.41661375214684,-128.23178923628546 L 169.41661375208093,-128.23178923652367 L 169.4159012161844,-128.2341381525824 L 169.41590121610687,-128.2341381528171 L 169.33324920813746,-128.46513504036196 L 169.33324920804932,-128.4651350405905 L 169.33230986917243,-128.46740280524676 L 169.33230986907256,-128.46740280547203 L 169.22741419877042,-128.6891860664019 L 169.2274141986598,-128.68918606662166 L 169.22625710315012,-128.69135084006015 L 169.22625710302864,-128.6913508402746 L 169.10012797304083,-128.90178458054717 L 169.100127972909,-128.90178458075536 L 169.09876426422844,-128.9038255150253 L 169.09876426408698,-128.90382551522617 L 168.95261636688375,-129.10088314288905 L 168.95261636673246,-129.10088314308288 L 168.9510591781407,-129.10278058287196 L 168.95105917798094,-129.10278058305718 L 168.7862999977047,-129.28456432543322 L 168.78629999753605,-129.28456432561035 L 168.78456432561038,-129.28629999753602 L 168.78456432543325,-129.28629999770467 L 168.60278058305718,-129.45105917798094 L 168.60278058287196,-129.4510591781407 L 168.60088314308288,-129.45261636673246 L 168.60088314288905,-129.45261636688375 L 168.40382551522617,-129.59876426408698 L 168.4038255150253,-129.59876426422844 L 168.40178458075536,-129.600127972909 L 168.40178458054717,-129.60012797304083 L 168.1913508402746,-129.72625710302864 L 168.19135084006015,-129.72625710315012 L 168.18918606662166,-129.7274141986598 L 168.1891860664019,-129.72741419877042 L 167.96740280547203,-129.83230986907256 L 167.96740280524676,-129.83230986917243 L 167.9651350405905,-129.83324920804932 L 167.96513504036196,-129.83324920813746 L 167.7341381528171,-129.91590121610687 L 167.7341381525824,-129.9159012161844 L 167.73178923652367,-129.91661375208093 L 167.73178923628546,-129.91661375214684 L 167.49380334842914,-129.9762261137644 L 167.49380334818872,-129.9762261138184 L 167.491395902071,-129.976704984625 L 167.49139590182867,-129.97670498466704 L 167.24871294785493,-130.01270360030344 L 167.2487129476113,-130.01270360033348 L 167.24627015645783,-130.0129441942623 L 167.24627015621172,-130.01294419428046 L 167.0012273056338,-130.0249823775879 L 167.00122730538808,-130.02498237759391 L 166.99877269461192,-130.02498237759391 L 166.9987726943662,-130.0249823775879 L 166.75372984378828,-130.01294419428046 L 166.75372984354217,-130.0129441942623 L 166.7512870523887,-130.01270360033348 L 166.75128705214507,-130.01270360030344 L 166.50860409817133,-129.97670498466704 L 166.508604097929,-129.976704984625 L 166.50619665181128,-129.9762261138184 L 166.50619665157086,-129.9762261137644 L 166.26821076371454,-129.91661375214684 L 166.26821076347633,-129.91661375208093 L 166.2658618474176,-129.9159012161844 L 166.2658618471829,-129.91590121610687 L 166.03486495963804,-129.83324920813746 L 166.0348649594095,-129.83324920804932 L 166.03259719475324,-129.83230986917243 L 166.03259719452797,-129.83230986907256 L 165.8108139335981,-129.72741419877042 L 165.81081393337834,-129.7274141986598 L 165.80864915993985,-129.72625710315012 L 165.8086491597254,-129.72625710302864 L 165.59821541945283,-129.60012797304083 L 165.59821541924464,-129.600127972909 L 165.5961744849747,-129.59876426422844 L 165.59617448477383,-129.59876426408698 L 165.39911685711095,-129.45261636688375 L 165.39911685691712,-129.45261636673246 L 165.39721941712804,-129.4510591781407 L 165.39721941694282,-129.45105917798094 L 165.21543567456678,-129.2862999977047 L 165.21543567438965,-129.28629999753605 L 165.21370000246398,-129.28456432561038 L 165.21370000229533,-129.28456432543325 L 165.04894082201906,-129.10278058305718 L 165.0489408218593,-129.10278058287196 L 165.04738363326754,-129.10088314308288 L 165.04738363311625,-129.10088314288905 L 164.90123573591302,-128.90382551522617 L 164.90123573577156,-128.9038255150253 L 164.899872027091,-128.90178458075536 L 164.89987202695917,-128.90178458054717 L 164.77374289697136,-128.6913508402746 L 164.77374289684988,-128.69135084006015 L 164.7725858013402,-128.68918606662166 L 164.77258580122958,-128.6891860664019 L 164.66769013092744,-128.46740280547203 L 164.66769013082757,-128.46740280524676 L 164.66675079195068,-128.4651350405905 L 164.66675079186254,-128.46513504036196 L 164.58409878389313,-128.2341381528171 L 164.5840987838156,-128.2341381525824 L 164.58338624791907,-128.23178923652367 L 164.58338624785316,-128.23178923628546 L 164.5237738862355,-127.99380334842863 L 164.52377388618174,-127.9938033481893 L 164.52329501537494,-127.99139590207062 L 164.52329501533302,-127.991395901829 L 164.48729639969653,-127.74871294785483 L 164.48729639966652,-127.7487129476114 L 164.4870558057376,-127.7462701564568 L 164.4870558057196,-127.74627015621279 L 164.4750176224121,-127.50122730563375 L 164.47501762240609,-127.50122730538808 z M 164.52504267127148,-127.49999999950933 L 164.52504267127148,-127.50000000049067 L 164.53696026723586,-127.74258823931117 L 164.53696026733203,-127.7425882402878 L 164.57259828226125,-127.98284022175663 L 164.57259828245273,-127.98284022271913 L 164.63161350278125,-128.21844218891908 L 164.63161350306612,-128.2184421898582 L 164.7134375799611,-128.4471251650615 L 164.71343758033663,-128.44712516596815 L 164.81728250320828,-128.66668680811358 L 164.8172825036709,-128.66668680897905 L 164.9421481891441,-128.87501261942714 L 164.94214818968928,-128.8750126202431 L 165.0868321129549,-129.07009630755772 L 165.0868321135775,-129.07009630831632 L 165.24994088936177,-129.25005910994435 L 165.24994089005568,-129.25005911063826 L 165.42990369168368,-129.4131678864225 L 165.42990369244228,-129.4131678870451 L 165.6249873797569,-129.55785181031072 L 165.62498738057286,-129.5578518108559 L 165.83331319102095,-129.6827174963291 L 165.83331319188642,-129.68271749679172 L 166.05287483403185,-129.78656241966337 L 166.0528748349385,-129.7865624200389 L 166.2815578101418,-129.86838649693388 L 166.28155781108092,-129.86838649721875 L 166.51715977728088,-129.92740171754727 L 166.51715977824338,-129.92740171773875 L 166.7574117597122,-129.96303973266797 L 166.75741176068883,-129.96303973276414 L 166.99999999950933,-129.97495732872852 L 167.00000000049067,-129.97495732872852 L 167.24258823931117,-129.96303973276414 L 167.2425882402878,-129.96303973266797 L 167.48284022175662,-129.92740171773875 L 167.48284022271912,-129.92740171754727 L 167.71844218891908,-129.86838649721875 L 167.7184421898582,-129.86838649693388 L 167.9471251650615,-129.7865624200389 L 167.94712516596815,-129.78656241966337 L 168.16668680811358,-129.68271749679172 L 168.16668680897905,-129.6827174963291 L 168.37501261942714,-129.5578518108559 L 168.3750126202431,-129.55785181031072 L 168.57009630755772,-129.4131678870451 L 168.57009630831632,-129.4131678864225 L 168.75005910994435,-129.25005911063823 L 168.75005911063826,-129.25005910994432 L 168.9131678864225,-129.07009630831632 L 168.9131678870451,-129.07009630755772 L 169.05785181031072,-128.8750126202431 L 169.0578518108559,-128.87501261942714 L 169.1827174963291,-128.66668680897905 L 169.18271749679172,-128.66668680811358 L 169.28656241966337,-128.44712516596815 L 169.2865624200389,-128.4471251650615 L 169.36838649693388,-128.2184421898582 L 169.36838649721875,-128.21844218891908 L 169.42740171754727,-127.98284022271913 L 169.42740171773875,-127.98284022175663 L 169.46303973266797,-127.7425882402878 L 169.46303973276414,-127.74258823931117 L 169.47495732872852,-127.50000000049067 L 169.47495732872852,-127.49999999950933 L 169.46303973276414,-127.25741176068883 L 169.46303973266797,-127.2574117597122 L 169.42740171773875,-127.01715977824337 L 169.42740171754727,-127.01715977728087 L 169.36838649721875,-126.78155781108086 L 169.36838649693388,-126.78155781014176 L 169.2865624200389,-126.55287483493856 L 169.28656241966337,-126.55287483403191 L 169.1827174967917,-126.33331319188636 L 169.18271749632908,-126.33331319102088 L 169.05785181085596,-126.12498738057292 L 169.05785181031078,-126.12498737975696 L 168.9131678870451,-125.92990369244228 L 168.9131678864225,-125.92990369168368 L 168.75005911063815,-125.7499408900556 L 168.75005910994423,-125.74994088936168 L 168.57009630831632,-125.58683211357747 L 168.57009630755772,-125.58683211295491 L 168.3750126202433,-125.44214818968942 L 168.37501261942734,-125.4421481891442 L 168.16668680897894,-125.31728250367082 L 168.16668680811347,-125.31728250320822 L 167.94712516596826,-125.21343758033669 L 167.9471251650616,-125.21343757996114 L 167.71844218985805,-125.13161350306608 L 167.71844218985805,-125.13161350306609 L 167.71844218891894,-125.1316135027812 L 167.48284022271898,-125.07259828245269 L 167.48284022175648,-125.07259828226124 L 167.2425882402881,-125.03696026733208 L 167.24258823931146,-125.03696026723588 L 167.00000000049067,-125.02504267127149 L 166.99999999950933,-125.02504267127149 L 166.75741176068854,-125.03696026723588 L 166.7574117597119,-125.03696026733208 L 166.51715977824352,-125.07259828226124 L 166.51715977728102,-125.07259828245269 L 166.28155781108106,-125.1316135027812 L 166.28155781014195,-125.13161350306608 L 166.0528748349384,-125.21343757996114 L 166.0528748349384,-125.21343757996115 L 166.05287483403174,-125.21343758033669 L 165.83331319188653,-125.31728250320822 L 165.83331319102106,-125.31728250367082 L 165.62498738057266,-125.4421481891442 L 165.6249873797567,-125.44214818968942 L 165.42990369244237,-125.58683211295484 L 165.42990369168376,-125.5868321135774 L 165.24994089005565,-125.74994088936177 L 165.24994088936174,-125.74994089005568 L 165.0868321135775,-125.92990369168368 L 165.0868321129549,-125.92990369244228 L 164.94214818968922,-126.12498737975696 L 164.94214818914404,-126.12498738057292 L 164.8172825036709,-126.33331319102093 L 164.81728250320828,-126.33331319188642 L 164.71343758033663,-126.55287483403187 L 164.7134375799611,-126.55287483493852 L 164.63161350306612,-126.78155781014176 L 164.63161350278125,-126.78155781108086 L 164.57259828245273,-127.01715977728087 L 164.57259828226125,-127.01715977824337 L 164.53696026733203,-127.2574117597122 L 164.53696026723586,-127.25741176068883 L 164.52504267127148,-127.49999999950933 z" fill="#66cc99" fill-rule="evenodd" opacity="0.6" stroke="#555555" stroke-width="0.02"/>
			<path d="M 112.47501762240607,-127.50122730538793 L 112.47501762240607,-127.49877269461207 L 112.4750176224121,-127.49877269436638 L 112.48705580571956,-127.25372984378737 L 112.48705580573757,-127.25372984354333 L 112.48729639966655,-127.25128705238835 L 112.48729639969658,-127.25128705214486 L 112.523295015333,-127.00860409817116 L 112.52329501537493,-127.0086040979295 L 112.5237738861817,-127.00619665181097 L 112.5237738862355,-127.00619665157137 L 112.58338624785345,-126.76821076371345 L 112.58338624791878,-126.7682107634774 L 112.58409878381592,-126.76586184741656 L 112.5840987838928,-126.76586184718381 L 112.6667507918625,-126.53486495963816 L 112.66675079195079,-126.53486495940929 L 112.66769013082774,-126.53259719475287 L 112.6676901309273,-126.53259719452825 L 112.77258580122978,-126.31081393359764 L 112.77258580133977,-126.31081393337912 L 112.77374289685037,-126.30864915993897 L 112.77374289697084,-126.30864915972629 L 112.8998720269595,-126.09821541945226 L 112.89987202709062,-126.0982154192452 L 112.90123573577169,-126.09617448497451 L 112.90123573591316,-126.09617448477364 L 113.04738363311616,-125.89911685711111 L 113.04738363326739,-125.89911685691732 L 113.04894082185906,-125.89721941712834 L 113.04894082201943,-125.89721941694243 L 113.21370000229504,-125.71543567456708 L 113.21370000246426,-125.71543567438934 L 113.21543567438934,-125.71370000246426 L 113.21543567456708,-125.71370000229504 L 113.39721941694243,-125.54894082201943 L 113.39721941712834,-125.54894082185906 L 113.39911685691732,-125.54738363326739 L 113.39911685711111,-125.54738363311616 L 113.59617448477364,-125.40123573591316 L 113.59617448497451,-125.40123573577169 L 113.5982154192452,-125.39987202709062 L 113.59821541945226,-125.3998720269595 L 113.80864915972629,-125.27374289697084 L 113.80864915993897,-125.27374289685037 L 113.81081393337911,-125.27258580133977 L 113.81081393359763,-125.27258580122978 L 114.03259719452822,-125.1676901309273 L 114.03259719475284,-125.16769013082774 L 114.03486495940928,-125.16675079195079 L 114.03486495963814,-125.1667507918625 L 114.26586184718381,-125.0840987838928 L 114.26586184741656,-125.08409878381592 L 114.2682107634774,-125.08338624791878 L 114.26821076371345,-125.08338624785345 L 114.50619665157137,-125.0237738862355 L 114.50619665181097,-125.0237738861817 L 114.5086040979295,-125.02329501537493 L 114.50860409817116,-125.023295015333 L 114.75128705214486,-124.98729639969658 L 114.75128705238835,-124.98729639966655 L 114.75372984354333,-124.98705580573757 L 114.75372984378737,-124.98705580571956 L 114.99877269436638,-124.9750176224121 L 114.99877269461207,-124.97501762240607 L 115.00122730538793,-124.97501762240607 L 115.00122730563362,-124.9750176224121 L 115.24627015621263,-124.98705580571956 L 115.24627015645667,-124.98705580573757 L 115.24871294761165,-124.98729639966655 L 115.24871294785514,-124.98729639969658 L 115.49139590182884,-125.023295015333 L 115.4913959020705,-125.02329501537493 L 115.49380334818903,-125.0237738861817 L 115.49380334842863,-125.0237738862355 L 115.73178923628655,-125.08338624785345 L 115.7317892365226,-125.08338624791878 L 115.73413815258344,-125.08409878381592 L 115.73413815281619,-125.0840987838928 L 115.96513504036186,-125.1667507918625 L 115.96513504059072,-125.16675079195079 L 115.96740280524716,-125.16769013082774 L 115.96740280547178,-125.1676901309273 L 116.18918606640237,-125.27258580122978 L 116.18918606662089,-125.27258580133977 L 116.19135084006103,-125.27374289685037 L 116.19135084027371,-125.27374289697084 L 116.40178458054774,-125.3998720269595 L 116.4017845807548,-125.39987202709062 L 116.40382551502549,-125.40123573577169 L 116.40382551522636,-125.40123573591316 L 116.60088314288889,-125.54738363311616 L 116.60088314308268,-125.54738363326739 L 116.60278058287166,-125.54894082185906 L 116.60278058305757,-125.54894082201943 L 116.78456432543292,-125.71370000229504 L 116.78456432561066,-125.71370000246426 L 116.78629999753574,-125.71543567438934 L 116.78629999770496,-125.71543567456708 L 116.95105917798057,-125.89721941694243 L 116.95105917814094,-125.89721941712834 L 116.95261636673261,-125.89911685691732 L 116.95261636688384,-125.89911685711111 L 117.09876426408684,-126.09617448477364 L 117.09876426422831,-126.09617448497451 L 117.10012797290938,-126.0982154192452 L 117.1001279730405,-126.09821541945226 L 117.22625710302916,-126.30864915972629 L 117.22625710314963,-126.30864915993897 L 117.22741419866023,-126.31081393337911 L 117.22741419877022,-126.31081393359763 L 117.3323098690727,-126.53259719452822 L 117.33230986917226,-126.53259719475284 L 117.33324920804921,-126.53486495940928 L 117.3332492081375,-126.53486495963814 L 117.4159012161072,-126.76586184718381 L 117.41590121618408,-126.76586184741656 L 117.41661375208122,-126.7682107634774 L 117.41661375214655,-126.76821076371345 L 117.4762261137645,-127.00619665157137 L 117.4762261138183,-127.00619665181097 L 117.47670498462507,-127.0086040979295 L 117.476704984667,-127.00860409817116 L 117.51270360030342,-127.25128705214486 L 117.51270360033345,-127.25128705238835 L 117.51294419426243,-127.25372984354333 L 117.51294419428044,-127.25372984378737 L 117.5249823775879,-127.49877269436638 L 117.52498237759393,-127.49877269461207 L 117.52498237759393,-127.50122730538793 L 117.5249823775879,-127.50122730563362 L 117.51294419428044,-127.74627015621263 L 117.51294419426243,-127.74627015645667 L 117.51270360033345,-127.74871294761165 L 117.51270360030342,-127.74871294785514 L 117.476704984667,-127.99139590182884 L 117.47670498462507,-127.9913959020705 L 117.4762261138183,-127.99380334818903 L 117.4762261137645,-127.99380334842863 L 117.41661375214655,-128.23178923628655 L 117.41661375208122,-128.2317892365226 L 117.41590121618408,-128.23413815258345 L 117.41590121610724,-128.23413815281606 L 117.3332492081375,-128.46513504036184 L 117.33324920804917,-128.46513504059084 L 117.33230986917222,-128.46740280524725 L 117.3323098690728,-128.46740280547155 L 117.22741419877013,-128.68918606640253 L 117.22741419866024,-128.68918606662083 L 117.22625710314963,-128.69135084006103 L 117.22625710302916,-128.69135084027374 L 117.10012797304033,-128.90178458054802 L 117.10012797290955,-128.90178458075457 L 117.09876426422812,-128.90382551502577 L 117.09876426408704,-128.9038255152261 L 116.95261636688384,-129.1008831428889 L 116.9526163667325,-129.10088314308283 L 116.95105917814068,-129.10278058287196 L 116.95105917798092,-129.10278058305718 L 116.78629999770494,-129.2845643254329 L 116.78629999753572,-129.28456432561063 L 116.78456432561036,-129.28629999753602 L 116.78456432543324,-129.28629999770467 L 116.60278058305757,-129.45105917798057 L 116.60278058287166,-129.45105917814092 L 116.60088314308202,-129.45261636673317 L 116.60088314288977,-129.4526163668832 L 116.4038255152259,-129.59876426408718 L 116.40382551502557,-129.59876426422827 L 116.40178458075562,-129.60012797290884 L 116.4017845805469,-129.600127973041 L 116.19135084027458,-129.72625710302864 L 116.19135084006014,-129.72625710315012 L 116.18918606662193,-129.72741419865966 L 116.1891860664015,-129.72741419877062 L 115.96740280547175,-129.8323098690727 L 115.96740280524713,-129.83230986917226 L 115.96513504059136,-129.83324920804895 L 115.96513504036092,-129.83324920813783 L 115.73413815281721,-129.91590121610685 L 115.73413815258237,-129.9159012161844 L 115.73178923652367,-129.91661375208093 L 115.73178923628546,-129.91661375214684 L 115.49380334842863,-129.9762261137645 L 115.4938033481893,-129.97622611381826 L 115.49139590207062,-129.97670498462506 L 115.491395901829,-129.97670498466698 L 115.24871294785483,-130.01270360030347 L 115.2487129476114,-130.01270360033348 L 115.2462701564568,-130.0129441942624 L 115.24627015621279,-130.0129441942804 L 115.00122730563375,-130.0249823775879 L 115.00122730538808,-130.02498237759391 L 114.99877269461192,-130.02498237759391 L 114.99877269436625,-130.0249823775879 L 114.75372984378721,-130.0129441942804 L 114.7537298435432,-130.0129441942624 L 114.7512870523886,-130.01270360033348 L 114.75128705214517,-130.01270360030347 L 114.508604098171,-129.97670498466698 L 114.50860409792938,-129.97670498462506 L 114.5061966518107,-129.97622611381826 L 114.50619665157137,-129.9762261137645 L 114.26821076371454,-129.91661375214684 L 114.26821076347633,-129.91661375208093 L 114.26586184741763,-129.9159012161844 L 114.26586184718279,-129.91590121610685 L 114.03486495963908,-129.83324920813783 L 114.03486495940864,-129.83324920804895 L 114.03259719475287,-129.83230986917226 L 114.03259719452825,-129.8323098690727 L 113.8108139335985,-129.72741419877062 L 113.81081393337807,-129.72741419865966 L 113.80864915993986,-129.72625710315012 L 113.80864915972542,-129.72625710302864 L 113.5982154194531,-129.600127973041 L 113.59821541924438,-129.60012797290884 L 113.59617448497443,-129.59876426422827 L 113.5961744847741,-129.59876426408718 L 113.39911685711023,-129.4526163668832 L 113.39911685691798,-129.45261636673317 L 113.39721941712834,-129.45105917814092 L 113.39721941694243,-129.45105917798057 L 113.21543567456676,-129.2862999977047 L 113.21543567438964,-129.28629999753605 L 113.21370000246426,-129.28456432561066 L 113.21370000229504,-129.28456432543294 L 113.04894082201906,-129.10278058305718 L 113.0489408218593,-129.10278058287196 L 113.0473836332675,-129.10088314308283 L 113.04738363311616,-129.1008831428889 L 112.90123573591296,-128.9038255152261 L 112.90123573577188,-128.90382551502577 L 112.89987202709045,-128.90178458075457 L 112.89987202695967,-128.90178458054802 L 112.77374289697084,-128.69135084027374 L 112.77374289685037,-128.69135084006103 L 112.77258580133976,-128.68918606662083 L 112.77258580122987,-128.68918606640253 L 112.6676901309272,-128.46740280547155 L 112.66769013082778,-128.46740280524725 L 112.66675079195083,-128.46513504059084 L 112.6667507918625,-128.46513504036184 L 112.58409878389287,-128.23413815281637 L 112.58409878381589,-128.23413815258337 L 112.58338624791878,-128.2317892365226 L 112.58338624785345,-128.23178923628655 L 112.5237738862355,-127.99380334842863 L 112.5237738861817,-127.99380334818903 L 112.52329501537493,-127.9913959020705 L 112.523295015333,-127.99139590182884 L 112.48729639969658,-127.74871294785514 L 112.48729639966655,-127.74871294761165 L 112.48705580573757,-127.74627015645667 L 112.48705580571956,-127.74627015621263 L 112.4750176224121,-127.50122730563362 L 112.47501762240607,-127.50122730538793 z M 112.52504267127149,-127.49999999950933 L 112.52504267127149,-127.50000000049067 L 112.53696026723588,-127.74258823931147 L 112.53696026733208,-127.7425882402881 L 112.57259828226124,-127.9828402217565 L 112.57259828245269,-127.982840222719 L 112.6316135027812,-128.21844218891894 L 112.63161350306608,-128.21844218985805 L 112.71343757996114,-128.4471251650616 L 112.71343757996115,-128.4471251650616 L 112.71343758033669,-128.44712516596826 L 112.81728250320822,-128.66668680811347 L 112.81728250367082,-128.66668680897894 L 112.9421481891442,-128.87501261942734 L 112.94214818968942,-128.8750126202433 L 113.08683211295484,-129.07009630755763 L 113.0868321135774,-129.07009630831624 L 113.24994088936177,-129.25005910994435 L 113.24994089005568,-129.25005911063826 L 113.42990369168368,-129.4131678864225 L 113.42990369244228,-129.4131678870451 L 113.62498737975696,-129.55785181031078 L 113.62498738057292,-129.55785181085596 L 113.83331319102093,-129.6827174963291 L 113.83331319188642,-129.68271749679172 L 114.05287483403187,-129.78656241966337 L 114.05287483493852,-129.7865624200389 L 114.28155781014176,-129.86838649693388 L 114.28155781108086,-129.86838649721875 L 114.51715977728087,-129.92740171754727 L 114.51715977824337,-129.92740171773875 L 114.7574117597122,-129.96303973266797 L 114.75741176068883,-129.96303973276414 L 114.99999999950933,-129.97495732872852 L 115.00000000049067,-129.97495732872852 L 115.24258823931117,-129.96303973276414 L 115.2425882402878,-129.96303973266797 L 115.48284022175663,-129.92740171773875 L 115.48284022271913,-129.92740171754727 L 115.71844218891914,-129.86838649721875 L 115.71844218985824,-129.86838649693388 L 115.94712516506148,-129.7865624200389 L 115.94712516596813,-129.78656241966337 L 116.16668680811358,-129.68271749679172 L 116.16668680897907,-129.6827174963291 L 116.37501261942708,-129.55785181085596 L 116.37501262024304,-129.55785181031078 L 116.57009630755772,-129.4131678870451 L 116.57009630831632,-129.4131678864225 L 116.7500591099444,-129.25005911063815 L 116.75005911063832,-129.25005910994423 L 116.91316788642253,-129.07009630831632 L 116.91316788704509,-129.07009630755772 L 117.05785181031058,-128.8750126202433 L 117.0578518108558,-128.87501261942734 L 117.18271749632918,-128.66668680897894 L 117.18271749679178,-128.66668680811347 L 117.28656241966331,-128.44712516596826 L 117.28656242003886,-128.4471251650616 L 117.36838649693392,-128.21844218985805 L 117.36838649693391,-128.21844218985805 L 117.3683864972188,-128.21844218891894 L 117.42740171754731,-127.982840222719 L 117.42740171773876,-127.9828402217565 L 117.46303973266792,-127.7425882402881 L 117.46303973276412,-127.74258823931147 L 117.47495732872851,-127.50000000049067 L 117.47495732872851,-127.49999999950933 L 117.46303973276412,-127.25741176068853 L 117.46303973266792,-127.2574117597119 L 117.42740171773876,-127.0171597782435 L 117.42740171754731,-127.017159777281 L 117.36838649721878,-126.781557811081 L 117.36838649693391,-126.7815578101419 L 117.28656242003889,-126.55287483493845 L 117.28656241966334,-126.5528748340318 L 117.18271749679174,-126.33331319188648 L 117.18271749632913,-126.33331319102099 L 117.05785181085584,-126.12498738057272 L 117.05785181031062,-126.12498737975676 L 116.91316788704516,-125.92990369244237 L 116.9131678864226,-125.92990369168376 L 116.75005911063823,-125.74994089005568 L 116.75005910994432,-125.74994088936177 L 116.57009630831624,-125.5868321135774 L 116.57009630755763,-125.58683211295484 L 116.37501262024324,-125.44214818968938 L 116.37501261942728,-125.44214818914416 L 116.16668680897901,-125.31728250367087 L 116.16668680811352,-125.31728250320826 L 115.9471251659682,-125.21343758033666 L 115.94712516506155,-125.21343757996111 L 115.7184421898581,-125.13161350306609 L 115.718442188919,-125.13161350278122 L 115.482840222719,-125.07259828245269 L 115.4828402217565,-125.07259828226124 L 115.2425882402881,-125.03696026733208 L 115.24258823931147,-125.03696026723588 L 115.00000000049067,-125.02504267127149 L 114.99999999950933,-125.02504267127149 L 114.75741176068853,-125.03696026723588 L 114.7574117597119,-125.03696026733208 L 114.5171597782435,-125.07259828226124 L 114.517159777281,-125.07259828245269 L 114.281557811081,-125.13161350278122 L 114.2815578101419,-125.13161350306609 L 114.05287483493845,-125.21343757996111 L 114.0528748340318,-125.21343758033666 L 113.83331319188648,-125.31728250320826 L 113.83331319102099,-125.31728250367087 L 113.62498738057272,-125.44214818914416 L 113.62498737975676,-125.44214818968938 L 113.42990369244237,-125.58683211295484 L 113.42990369168376,-125.5868321135774 L 113.24994089005568,-125.74994088936177 L 113.24994088936177,-125.74994089005568 L 113.0868321135774,-125.92990369168376 L 113.08683211295484,-125.92990369244237 L 112.94214818968938,-126.12498737975676 L 112.94214818914416,-126.12498738057272 L 112.81728250367084,-126.33331319102105 L 112.81728250320823,-126.33331319188653 L 112.71343758033669,-126.55287483403175 L 112.71343757996114,-126.55287483493841 L 112.63161350306609,-126.7815578101419 L 112.63161350278122,-126.781557811081 L 112.57259828245269,-127.017159777281 L 112.57259828226124,-127.0171597782435 L 112.53696026733208,-127.2574117597119 L 112.53696026723588,-127.25741176068853 L 112.52504267127149,-127.49999999950933 z" fill="#66cc99" fill-rule="evenodd" opacity="0.6" stroke="#555555" stroke-width="0.02"/>
			<path d="M 110.97498749374688,-71.50000000012301 L 110.9749874937529,-71.49999999987732 L 110.97510793578904,-71.49754834590983 L 110.97510793583713,-71.49754834542168 L 110.97546810200491,-71.4951203023435 L 110.97546810210058,-71.49512030186254 L 110.976064523809,-71.49273925293305 L 110.97606452395131,-71.49273925246393 L 110.97689145733322,-71.49042812848614 L 110.9768914575209,-71.49042812803306 L 110.97794093875584,-71.48820918639422 L 110.97794093898683,-71.48820918596205 L 110.97920286099689,-71.48610379628293 L 110.97920286126916,-71.48610379587548 L 110.98066507105527,-71.48413223421012 L 110.98066507136637,-71.48413223383103 L 110.98231348704918,-71.48231348739573 L 110.98231348739573,-71.48231348704918 L 110.98413223383103,-71.48066507136637 L 110.98413223421012,-71.48066507105527 L 110.98610379587548,-71.47920286126916 L 110.98610379628293,-71.47920286099689 L 110.98820918596205,-71.47794093898683 L 110.98820918639422,-71.47794093875584 L 110.99042812803306,-71.4768914575209 L 110.99042812848614,-71.47689145733322 L 110.99273925246393,-71.47606452395131 L 110.99273925293305,-71.476064523809 L 110.99512030186254,-71.47546810210058 L 110.9951203023435,-71.47546810200491 L 110.99754834542168,-71.47510793583713 L 110.99754834590983,-71.47510793578904 L 110.99999999987732,-71.4749874937529 L 111.00000000012301,-71.47498749374688 L 170.99999999987702,-71.47498749374688 L 171.00000000012267,-71.4749874937529 L 171.00245165409015,-71.47510793578904 L 171.00245165457832,-71.47510793583713 L 171.00487969765643,-71.4754681020049 L 171.00487969813753,-71.47546810210059 L 171.00726074706697,-71.476064523809 L 171.00726074753604,-71.4760645239513 L 171.0095718715139,-71.47689145733324 L 171.00957187196673,-71.47689145752081 L 171.01179081360573,-71.47794093875581 L 171.01179081403808,-71.4779409389869 L 171.01389620371694,-71.47920286099682 L 171.01389620412465,-71.47920286126924 L 171.01586776578986,-71.48066507105527 L 171.01586776616895,-71.48066507136637 L 171.01768651260429,-71.48231348704918 L 171.01768651295083,-71.48231348739573 L 171.0193349286335,-71.48413223383092 L 171.01933492894474,-71.48413223421015 L 171.02079713873084,-71.48610379587545 L 171.02079713900326,-71.48610379628316 L 171.02205906101304,-71.48820918596182 L 171.02205906124425,-71.48820918639434 L 171.02310854247906,-71.49042812803293 L 171.02310854266688,-71.4904281284864 L 171.02393547604854,-71.49273925246341 L 171.02393547619116,-71.49273925293357 L 171.02453189789932,-71.49512030186213 L 171.0245318979951,-71.49512030234364 L 171.02489206416288,-71.49754834542189 L 171.02489206421095,-71.49754834590978 L 171.0250125062471,-71.49999999987719 L 171.02501250625312,-71.50000000012285 L 171.02501250625312,-131.49999999987713 L 171.0250125062471,-131.50000000012284 L 171.02489206421095,-131.50245165409024 L 171.02489206416288,-131.50245165457812 L 171.0245318979951,-131.50487969765643 L 171.02453189789932,-131.5048796981378 L 171.02393547619107,-131.5072607470667 L 171.02393547604862,-131.5072607475363 L 171.02310854266685,-131.5095718715137 L 171.0231085424791,-131.50957187196698 L 171.02205906124428,-131.5117908136056 L 171.02205906101298,-131.5117908140383 L 171.02079713900335,-131.51389620371668 L 171.02079713873076,-131.51389620412468 L 171.01933492894474,-131.51586776578984 L 171.0193349286335,-131.51586776616907 L 171.01768651295083,-131.51768651260429 L 171.01768651260429,-131.51768651295083 L 171.01586776616907,-131.5193349286335 L 171.01586776578984,-131.51933492894474 L 171.01389620412468,-131.52079713873076 L 171.01389620371668,-131.52079713900335 L 171.0117908140383,-131.52205906101298 L 171.0117908136056,-131.52205906124428 L 171.00957187196698,-131.5231085424791 L 171.0095718715137,-131.52310854266685 L 171.0072607475363,-131.52393547604862 L 171.0072607470667,-131.52393547619107 L 171.0048796981378,-131.52453189789932 L 171.00487969765643,-131.5245318979951 L 171.00245165457812,-131.52489206416288 L 171.00245165409024,-131.52489206421095 L 171.00000000012284,-131.5250125062471 L 170.99999999987713,-131.52501250625312 L 111.00000000012285,-131.52501250625312 L 110.99999999987719,-131.5250125062471 L 110.99754834590978,-131.52489206421095 L 110.99754834542189,-131.52489206416288 L 110.99512030234364,-131.5245318979951 L 110.99512030186213,-131.52453189789932 L 110.99273925293357,-131.52393547619116 L 110.99273925246341,-131.52393547604854 L 110.9904281284864,-131.52310854266688 L 110.99042812803293,-131.52310854247906 L 110.98820918639434,-131.52205906124425 L 110.98820918596182,-131.52205906101304 L 110.98610379628316,-131.52079713900326 L 110.98610379587545,-131.52079713873084 L 110.98413223421015,-131.51933492894474 L 110.98413223383092,-131.5193349286335 L 110.98231348739573,-131.51768651295083 L 110.98231348704918,-131.51768651260429 L 110.98066507136637,-131.51586776616895 L 110.98066507105527,-131.51586776578986 L 110.97920286126924,-131.51389620412465 L 110.97920286099682,-131.51389620371694 L 110.9779409389869,-131.51179081403808 L 110.97794093875581,-131.51179081360573 L 110.9768914575209,-131.50957187196695 L 110.97689145733322,-131.50957187151386 L 110.97606452395138,-131.50726074753632 L 110.97606452380899,-131.50726074706688 L 110.97546810210059,-131.50487969813753 L 110.9754681020049,-131.50487969765643 L 110.97510793583713,-131.50245165457832 L 110.97510793578904,-131.50245165409015 L 110.9749874937529,-131.50000000012267 L 110.97498749374688,-131.49999999987702 L 110.97498749374688,-71.50000000012301 z M 111.02501251625311,-71.52501250625312 L 111.02501251527295,-71.52501250630127 L 111.0250125143022,-71.52501250644526 L 111.02501251335026,-71.52501250668371 L 111.02501251242627,-71.52501250701432 L 111.02501251153915,-71.5250125074339 L 111.02501251069741,-71.52501250793841 L 111.02501250990917,-71.525012508523 L 111.02501250918205,-71.52501250918205 L 111.025012508523,-71.52501250990917 L 111.02501250793841,-71.52501251069741 L 111.0250125074339,-71.52501251153915 L 111.02501250701432,-71.52501251242627 L 111.02501250668371,-71.52501251335026 L 111.02501250644526,-71.5250125143022 L 111.02501250630127,-71.52501251527295 L 111.02501250625312,-71.52501251625311 L 111.02501250625312,-131.47498748374687 L 111.02501250630127,-131.47498748472705 L 111.02501250644526,-131.47498748569777 L 111.02501250668371,-131.47498748664972 L 111.02501250701432,-131.4749874875737 L 111.0250125074339,-131.47498748846084 L 111.02501250793841,-131.47498748930258 L 111.025012508523,-131.4749874900908 L 111.02501250918205,-131.47498749081794 L 111.02501250990917,-131.47498749147698 L 111.02501251069741,-131.47498749206156 L 111.02501251153915,-131.47498749256607 L 111.02501251242627,-131.47498749298566 L 111.02501251335026,-131.47498749331626 L 111.0250125143022,-131.47498749355472 L 111.02501251527295,-131.4749874936987 L 111.02501251625311,-131.47498749374688 L 170.97498748374687,-131.47498749374688 L 170.97498748472705,-131.4749874936987 L 170.97498748569777,-131.47498749355472 L 170.97498748664972,-131.47498749331626 L 170.9749874875737,-131.47498749298566 L 170.97498748846084,-131.47498749256607 L 170.97498748930258,-131.47498749206156 L 170.9749874900908,-131.47498749147698 L 170.97498749081794,-131.47498749081794 L 170.97498749147698,-131.4749874900908 L 170.97498749206156,-131.47498748930258 L 170.97498749256607,-131.47498748846084 L 170.97498749298566,-131.4749874875737 L 170.97498749331626,-131.47498748664972 L 170.97498749355472,-131.47498748569777 L 170.9749874936987,-131.47498748472705 L 170.97498749374688,-131.47498748374687 L 170.97498749374688,-71.52501251625311 L 170.9749874936987,-71.52501251527295 L 170.97498749355472,-71.5250125143022 L 170.97498749331626,-71.52501251335026 L 170.97498749298566,-71.52501251242627 L 170.97498749256607,-71.52501251153915 L 170.97498749206156,-71.52501251069741 L 170.97498749147698,-71.52501250990917 L 170.97498749081794,-71.52501250918205 L 170.9749874900908,-71.525012508523 L 170.97498748930258,-71.52501250793841 L 170.97498748846084,-71.5250125074339 L 170.9749874875737,-71.52501250701432 L 170.97498748664972,-71.52501250668371 L 170.97498748569777,-71.52501250644526 L 170.97498748472705,-71.52501250630127 L 170.97498748374687,-71.52501250625312 L 111.02501251625311,-71.52501250625312 z" fill="#66cc99" fill-rule="evenodd" opacity="0.6" stroke="#555555" stroke-width="0.02"/>
		</g>
	</g>
	 
</svg>
